<svg width="30" height="30" viewBox="0 0 30 30" fill="none" xmlns="http://www.w3.org/2000/svg">
<g clip-path="url(#clip0_1_3)">
<path d="M1.36365 10.9091C0.545471 10.9091 0 10.3636 0 9.54543V4.09089C0 1.77271 1.77271 0 4.09089 0H9.54543C10.3636 0 10.9091 0.545471 10.9091 1.36365C10.9091 2.18183 10.3636 2.7273 9.54543 2.7273H4.09089C3.27271 2.7273 2.72724 3.27277 2.72724 4.09095V9.54549C2.7273 10.3636 2.18183 10.9091 1.36365 10.9091ZM28.6363 10.9091C27.8182 10.9091 27.2727 10.3636 27.2727 9.54543V4.09089C27.2727 3.27271 26.7272 2.72724 25.9091 2.72724H20.4545C19.6363 2.72724 19.0909 2.18177 19.0909 1.36359C19.0909 0.545415 19.6363 0 20.4545 0H25.9091C28.2272 0 29.9999 1.77271 29.9999 4.09089V9.54543C30 10.3636 29.4545 10.9091 28.6363 10.9091ZM9.54543 30H4.09089C1.77271 30 0 28.2273 0 25.9091V20.4546C0 19.6364 0.545471 19.0909 1.36365 19.0909C2.18183 19.0909 2.7273 19.6364 2.7273 20.4546V25.9091C2.7273 26.7273 3.27277 27.2728 4.09095 27.2728H9.54549C10.3637 27.2728 10.9091 27.8182 10.9091 28.6364C10.9091 29.4545 10.3636 30 9.54543 30ZM25.9091 30H20.4546C19.6364 30 19.0909 29.4545 19.0909 28.6363C19.0909 27.8182 19.6364 27.2727 20.4546 27.2727H25.9091C26.7273 27.2727 27.2728 26.7272 27.2728 25.9091V20.4545C27.2728 19.6363 27.8182 19.0909 28.6364 19.0909C29.4546 19.0909 30.0001 19.6363 30.0001 20.4545V25.9091C30 28.2273 28.2273 30 25.9091 30Z" fill="currentcolor"/>
<path d="M12.2727 13.6364H6.81818C6 13.6364 5.45453 13.0909 5.45453 12.2727V6.81819C5.45453 6.00001 6 5.45454 6.81818 5.45454H12.2727C13.0909 5.45454 13.6364 6.00001 13.6364 6.81819V12.2727C13.6364 13.0909 13.0909 13.6364 12.2727 13.6364ZM8.18183 10.9091H10.9091V8.18179H8.18183V10.9091ZM12.2727 24.5455H6.81818C6 24.5455 5.45453 24 5.45453 23.1818V17.7273C5.45453 16.9091 6 16.3636 6.81818 16.3636H12.2727C13.0909 16.3636 13.6364 16.9091 13.6364 17.7273V23.1818C13.6364 24 13.0909 24.5455 12.2727 24.5455ZM8.18183 21.8182H10.9091V19.0909H8.18183V21.8182ZM23.1818 13.6364H17.7273C16.9091 13.6364 16.3636 13.0909 16.3636 12.2727V6.81819C16.3636 6.00001 16.9091 5.45454 17.7273 5.45454H23.1818C24 5.45454 24.5454 6.00001 24.5454 6.81819V12.2727C24.5454 13.0909 24 13.6364 23.1818 13.6364ZM19.0909 10.9091H21.8182V8.18179H19.0909V10.9091ZM17.7273 20.4545C16.9091 20.4545 16.3636 19.909 16.3636 19.0909V17.7272C16.3636 16.909 16.9091 16.3636 17.7273 16.3636C18.5454 16.3636 19.0909 16.909 19.0909 17.7272V19.0909C19.0909 19.9091 18.5454 20.4545 17.7273 20.4545ZM23.1818 19.0909H21.8181C21 19.0909 20.4545 18.5455 20.4545 17.7273C20.4545 16.9091 21 16.3636 21.8181 16.3636H23.1818C24 16.3636 24.5454 16.9091 24.5454 17.7273C24.5454 18.5455 24 19.0909 23.1818 19.0909ZM23.1818 24.5455H19.0909C18.2727 24.5455 17.7273 24 17.7273 23.1818C17.7273 22.3636 18.2727 21.8182 19.0909 21.8182H23.1818C24 21.8182 24.5454 22.3636 24.5454 23.1818C24.5454 24 24 24.5455 23.1818 24.5455Z" fill="currentcolor"/>
</g>
<defs>
<clipPath id="clip0_1_3">
<rect width="30" height="30" fill="white"/>
</clipPath>
</defs>
</svg>
